<svg width="194" height="49" viewBox="0 0 194 49" fill="none" xmlns="http://www.w3.org/2000/svg">
<g clip-path="url(#clip0_231_3112)">
<path d="M10.2796 5.46316H12.3798V11.4947H7.26111V8.18948L5.28749 9.97369H0.158203L10.4009 0.747371L15.5408 0.726318L10.2743 5.46316H10.2796Z" fill="#F08300"/>
<path d="M32.3847 1.60528L31.0285 8.55791H25.9098L26.9599 3.24739H23.9362L25.5826 11.4948H20.4639L18.8175 3.24739H16.9863V1.60528H18.4903L18.3056 0.721069H23.4243L23.609 1.60528H32.39H32.3847Z" fill="#F08300"/>
<path d="M49.3723 1.60524V3.24734H44.1692V11.4947H39.0504V3.24734H33.8262V1.60524H39.0504V0.373657H44.1692V1.60524H49.3723ZM34.4858 5.03155H38.127L37.4673 11.4947H33.8262L34.4858 5.03155ZM48.7391 5.03155L49.3776 11.4947H45.7365L45.0979 5.03155H48.7391Z" fill="#F08300"/>
<path d="M57.7043 3.14737H50.8125V0.726318H57.7043V3.14737ZM66.364 2.8579L61.7571 11.4947H56.6384L61.2452 2.8579H66.364Z" fill="#F08300"/>
<path d="M84.9072 0.726318L91.6513 11.4947H86.5326L82.1315 4.47895L80.3848 8.86842H76.332L79.6038 0.726318H84.9125H84.9072Z" fill="#F08300"/>
<path d="M93.0918 3.43152H94.9229V8.57889H93.0918V3.43152ZM97.6142 8.57889H95.7831V3.43152H97.6142V8.57889ZM104.116 3.7631L101.213 11.4947H97.3662L100.284 3.7631H104.11H104.116Z" fill="#F08300"/>
<path d="M110.654 4.45785H118.549V6.8789H110.654V11.4947H105.53V0.726266H110.654V4.45785ZM116.327 2.94206H114.886V0.336792H116.327V2.94206ZM118.649 0.336792V2.94206H117.187V0.336792H118.649Z" fill="#F08300"/>
<path d="M135.519 1.60524V3.24734H130.316V11.4947H125.197V3.24734H119.973V1.60524H125.197V0.373657H130.316V1.60524H135.519ZM120.627 5.03155H124.269L123.609 11.4947H119.968L120.627 5.03155ZM134.881 5.03155L135.519 11.4947H131.878L131.24 5.03155H134.881Z" fill="#F08300"/>
<path d="M143.852 3.14737H136.96V0.726318H143.852V3.14737ZM152.506 2.8579L147.899 11.4947H142.775L147.382 2.8579H152.506Z" fill="#F08300"/>
<path d="M73.0292 5.1894C73.0292 6.01045 72.3643 6.66834 71.5463 6.66834C70.7284 6.66834 70.0635 6.00519 70.0635 5.1894C70.0635 4.37361 70.7284 3.71045 71.5463 3.71045C72.3643 3.71045 73.0292 4.39992 73.0292 5.1894Z" fill="#F08300"/>
<path d="M162.486 0.121094V0.915831H167.177V2.39478H162.486V2.78952H166.386V7.28425H164.956V7.74741H167.552V9.21583H164.956V10.4053C164.956 11.9948 164.185 12.1895 162.169 12.1895C162.116 11.6632 161.985 11.0369 161.731 10.5632H162.861C163.008 10.5632 163.061 10.4843 163.061 10.3527V9.21583H159.642C159.937 9.52109 160.412 9.98425 160.718 10.2737L159.499 11.4106C159.061 10.8948 158.813 10.6421 157.763 9.70531L158.28 9.21583H155.721V7.74741H163.066V7.28425H156.861V2.78952H160.602V2.39478H155.932V0.910567H160.602V0.121094H162.496H162.486ZM158.655 4.44215H160.591V4.02109H158.655V4.44215ZM158.655 6.09478H160.591V5.57899H158.655V6.09478ZM162.486 4.44215H164.539V4.02109H162.486V4.44215ZM162.486 5.57899V6.09478H164.539V5.57899H162.486Z" fill="#F08300"/>
<path d="M174.407 0.35791V5.72633H171.198V12.179H169.42V0.35791H174.407ZM171.198 2.44738H172.75V1.90528H171.198V2.44738ZM171.198 4.2737H172.75V3.68949H171.198V4.2737ZM180.375 0.368436V10.2842C180.375 11.4369 180.122 12.1474 177.51 12.1895C177.404 11.5684 177.219 10.9842 176.94 10.4579H178.386C178.507 10.4579 178.533 10.379 178.533 10.2842V5.73686H175.283V0.368436H180.375ZM176.966 2.4737H178.528V1.88949H176.966V2.4737ZM176.966 4.2737H178.528V3.71581H176.966V4.2737Z" fill="#F08300"/>
<path d="M189.652 0V0.910526H194V2.55263H184.718C184.718 7.3 184.623 8.31579 183.842 10.7C183.763 11.0158 183.657 11.3368 183.151 12.2211C182.702 11.6368 182.238 11.0947 181.694 10.6211C182.148 9.73684 182.771 8.45263 182.876 5.88421C182.903 5.48947 182.903 5.01053 182.903 0.910526H187.504V0H189.652ZM189.969 2.83158V4.03158H193.721V5.63158H189.969V6.82105H193.388V11.9263H191.478V11.4H187.087V12.0632H185.167V6.82632H188.058V2.83158H189.969ZM187.093 9.74737H191.483V8.42632H187.093V9.74737Z" fill="#F08300"/>
<path d="M26.5273 38.579H8.89143C9.04974 39.9948 9.43496 41.0527 10.0418 41.7474C10.8967 42.7474 12.0102 43.2474 13.3875 43.2474C14.2582 43.2474 15.0814 43.0264 15.8624 42.5843C16.3373 42.3053 16.8545 41.8106 17.4033 41.1053L26.0629 41.9474C24.7384 44.2422 23.1394 45.8843 21.2714 46.879C19.398 47.8737 16.712 48.3737 13.2186 48.3737C10.179 48.3737 7.78852 47.9474 6.0471 47.0895C4.30567 46.2369 2.85976 44.8737 1.71992 43.0158C0.574804 41.1527 0.00488281 38.9632 0.00488281 36.4474C0.00488281 32.8685 1.15 29.9737 3.44552 27.7579C5.73575 25.5474 8.90726 24.4369 12.9495 24.4369C16.2265 24.4369 18.8175 24.9316 20.712 25.9264C22.6065 26.9211 24.0524 28.3579 25.0497 30.2422C26.0418 32.1264 26.5379 34.5737 26.5379 37.5948V38.5843L26.5273 38.579ZM17.6355 34.3737C17.4613 32.679 17.0022 31.4632 16.2529 30.7316C15.5036 30 14.522 29.6316 13.3083 29.6316C11.8993 29.6316 10.7806 30.1843 9.93628 31.2895C9.39802 31.979 9.06029 33.0053 8.91253 34.3737H17.6302H17.6355Z" fill="#F08300"/>
<path d="M74.9703 35.2684H79.4769V48.2315H68.4848V41.1315L64.2474 44.9631H53.25L75.2394 25.1421L86.279 25.0631L74.9756 35.2684H74.9703Z" fill="#F08300"/>
<path d="M121.588 26.9894L118.675 41.921H107.678L109.931 30.5105H103.44L106.971 48.2263H95.9787L92.4431 30.5105H88.5117V26.9894H91.736L91.3402 25.0579H102.338L102.739 26.9894H121.594H121.588Z" fill="#F08300"/>
<path d="M175.097 30.2894H160.306V25.0579H175.097V30.2894ZM193.683 29.6737L183.794 48.2158L172.802 48.2263L182.696 29.6737H193.688H193.683Z" fill="#F08300"/>
<path d="M29.2025 33.4948H37.7302L40.5112 25.0842L43.192 33.4948H51.5297L44.8226 38.5579L47.3134 46.5895L40.5112 41.7158L33.6089 46.5895L36.0996 38.6579L29.1973 33.4948H29.2025ZM34.7593 35.1211L38.2105 37.7948L36.8701 41.9053L40.5112 39.3263L43.8674 41.9053L42.5271 37.7948L45.9783 35.1211H41.8569L40.5165 31.1053L38.9862 35.1211H34.7698H34.7593Z" fill="#F08300"/>
<path d="M157.641 26.9894V30.4894H146.485V48.2158H135.446V30.4894H124.253V26.9894H135.446V24.3737H146.485V26.9894H157.641Z" fill="#F08300"/>
<path d="M140.759 15.5105C140.854 15.5105 141.023 15.5 141.377 15.4895C143.952 15.4158 154.564 15.7842 157.852 27.0474L158.284 27.0737L158.612 30.0053L158.031 30.1526C158.11 30.8368 158.195 31.9316 158.195 33.3316C158.337 33.2421 158.506 33.2105 158.686 33.2368C159.065 33.2895 159.356 33.5 159.234 34.2895C159.139 34.8684 158.986 36.3158 158.87 37.1579C159.414 38.2421 159.72 39.7053 159.477 41.7053C158.701 48.1263 152.443 48.1105 152.443 48.1105C152.443 48.1105 152.047 49.2421 150.733 48.9105C149.419 48.5789 149.34 48.421 150.675 40.2737C152.005 32.1316 152.627 32.5105 153.572 32.5895C155.029 32.7105 154.965 33.9158 155.171 34.1211C155.24 34.1895 155.81 34.3368 156.517 34.7316C156.564 33.9368 156.649 31.9263 156.48 30.1842L156.068 30.1L155.751 27.4316L156 27.3316C155.498 25.3737 152.474 18.3105 142.496 18.2263C142.179 18.2263 141.63 18.2158 141.24 18.2105C140.997 18.2105 140.833 18.2105 140.712 18.2105" fill="#F08300"/>
<path d="M141.213 15.5105C141.118 15.5105 141.102 15.5211 140.749 15.5105C138.174 15.4369 127.387 15.8105 124.095 27.0737L123.662 27.0948L123.335 30.0263L123.91 30.1737C123.836 30.8579 123.746 31.9527 123.746 33.3527C123.604 33.2632 123.435 33.2316 123.25 33.2579C122.87 33.3105 122.58 33.5211 122.701 34.3106C122.791 34.8895 122.944 36.3369 123.06 37.179C122.517 38.2632 122.211 39.7263 122.453 41.7263C123.229 48.1474 129.488 48.1316 129.488 48.1316C129.488 48.1316 129.883 49.2632 131.197 48.9316C132.511 48.6 132.585 48.4421 131.256 40.2948C129.926 32.1527 129.303 32.5316 128.364 32.6105C126.907 32.7316 126.971 33.9369 126.765 34.1421C126.696 34.2106 126.126 34.3579 125.419 34.7527C125.372 33.9579 125.287 31.9474 125.456 30.2053L125.868 30.1211L126.19 27.4527L125.942 27.3527C126.443 25.3948 129.472 18.3316 139.451 18.2474C139.767 18.2474 140.306 18.2158 140.691 18.2105C140.934 18.2105 141.129 18.2053 141.25 18.2053" fill="#F08300"/>
</g>
<defs>
<clipPath id="clip0_231_3112">
<rect width="194" height="49" fill="white"/>
</clipPath>
</defs>
</svg>
